<svg width="220" height="142" viewBox="0 0 220 142" fill="none" xmlns="http://www.w3.org/2000/svg">
<rect width="220" height="141.429" rx="4" fill="#171717"/>
<rect x="12" y="42" width="48" height="10" rx="4" fill="#262626"/>
<rect x="12" y="56" width="48" height="10" rx="4" fill="#262626"/>
<rect x="12" y="70" width="48" height="10" rx="4" fill="#262626"/>
<rect x="12" y="84" width="48" height="10" rx="4" fill="#262626"/>
<rect x="72.5" y="18.5" width="135" height="96" rx="3.5" stroke="#262626"/>
<rect x="12" y="18" width="15" height="15" rx="7.5" fill="#262626"/>
<rect x="78" y="24" width="48" height="5" rx="2" fill="#262626"/>
<rect x="189" y="24" width="13" height="5" rx="2" fill="#262626"/>
<rect x="78" y="42" width="32" height="3" rx="1.5" fill="#404040"/>
<rect x="78" y="57" width="32" height="3" rx="1.5" fill="#404040"/>
<rect x="78" y="47" width="74" height="6" rx="2" fill="#404040"/>
<rect x="78" y="62" width="74" height="6" rx="2" fill="#404040"/>
</svg>
