<svg width="565" height="343" viewBox="0 0 565 343" fill="none" xmlns="http://www.w3.org/2000/svg">
<g clip-path="url(#clip0_224_99)">
<path d="M492.377 9.50805e-09H6.97295C5.12408 0.00168195 3.35143 0.73718 2.04411 2.04504C0.736783 3.35291 0.00162193 5.12627 0 6.97584V336.024C0.00162193 337.874 0.736783 339.647 2.04411 340.955C3.35143 342.263 5.12408 342.998 6.97295 343H492.377C493.385 343 494.381 342.781 495.297 342.359C496.212 341.936 497.025 341.32 497.679 340.552C497.734 340.492 497.785 340.428 497.831 340.36C498.247 339.851 498.584 339.282 498.83 338.672C499.181 337.834 499.361 336.933 499.358 336.024V6.97584C499.356 5.12497 498.62 3.35061 497.311 2.04259C496.001 0.734577 494.227 -9.65043e-05 492.377 9.50805e-09ZM497.367 336.024C497.368 336.997 497.081 337.949 496.543 338.76C496.065 339.474 495.416 340.057 494.656 340.456C493.951 340.82 493.17 341.009 492.377 341.008H6.97295C5.65214 341.006 4.38588 340.481 3.45193 339.547C2.51797 338.612 1.99257 337.345 1.99097 336.024V6.97584C1.99257 5.65452 2.51797 4.38778 3.45193 3.45347C4.38588 2.51916 5.65214 1.99356 6.97295 1.99196H492.377C493.699 1.99179 494.967 2.51656 495.903 3.45102C496.838 4.38548 497.365 5.65322 497.367 6.97584V336.024Z" fill="#3F563D"/>
<path d="M498.359 27.9587H0.994141V29.9529H498.359V27.9587Z" fill="#3F563D"/>
<path d="M17.9383 20.9392C21.2412 20.9392 23.9187 18.2607 23.9187 14.9566C23.9187 11.6524 21.2412 8.97394 17.9383 8.97394C14.6355 8.97394 11.958 11.6524 11.958 14.9566C11.958 18.2607 14.6355 20.9392 17.9383 20.9392Z" fill="#3F563D"/>
<path d="M35.1317 20.9392C38.4346 20.9392 41.112 18.2607 41.112 14.9566C41.112 11.6524 38.4346 8.97394 35.1317 8.97394C31.8289 8.97394 29.1514 11.6524 29.1514 14.9566C29.1514 18.2607 31.8289 20.9392 35.1317 20.9392Z" fill="#3F563D"/>
<path d="M52.3251 20.9392C55.6279 20.9392 58.3054 18.2607 58.3054 14.9566C58.3054 11.6524 55.6279 8.97394 52.3251 8.97394C49.0222 8.97394 46.3447 11.6524 46.3447 14.9566C46.3447 18.2607 49.0222 20.9392 52.3251 20.9392Z" fill="#3F563D"/>
<path d="M60.0166 153.393H42.4237C41.4697 153.392 40.555 153.013 39.8804 152.338C39.2057 151.663 38.8263 150.748 38.8252 149.793V132.194C38.8263 131.239 39.2057 130.324 39.8804 129.649C40.555 128.975 41.4697 128.595 42.4237 128.594H60.0166C60.9707 128.595 61.8854 128.975 62.56 129.649C63.2346 130.324 63.6141 131.239 63.6152 132.194V149.793C63.6141 150.748 63.2346 151.663 62.56 152.338C61.8854 153.013 60.9707 153.392 60.0166 153.393Z" fill="#98FB98"/>
<path d="M60.0166 198.992H42.4237C41.4697 198.991 40.555 198.612 39.8804 197.937C39.2057 197.262 38.8263 196.347 38.8252 195.392V177.793C38.8263 176.838 39.2057 175.923 39.8804 175.248C40.555 174.574 41.4697 174.194 42.4237 174.193H60.0166C60.9707 174.194 61.8854 174.574 62.56 175.248C63.2346 175.923 63.6141 176.838 63.6152 177.793V195.392C63.6141 196.347 63.2346 197.262 62.56 197.937C61.8854 198.612 60.9707 198.991 60.0166 198.992Z" fill="#3F563D"/>
<path d="M60.0166 244.591H42.4237C41.4697 244.59 40.555 244.211 39.8804 243.536C39.2057 242.861 38.8263 241.946 38.8252 240.991V223.392C38.8263 222.437 39.2057 221.522 39.8804 220.847C40.555 220.172 41.4697 219.793 42.4237 219.792H60.0166C60.9707 219.793 61.8854 220.172 62.56 220.847C63.2346 221.522 63.6141 222.437 63.6152 223.392V240.991C63.6141 241.946 63.2346 242.861 62.56 243.536C61.8854 244.211 60.9707 244.59 60.0166 244.591Z" fill="#CCCCCC"/>
<path d="M175.171 144.594H90.4052C89.4508 144.594 88.5355 144.214 87.8606 143.539C87.1858 142.864 86.8066 141.948 86.8066 140.994C86.8066 140.039 87.1858 139.123 87.8606 138.448C88.5355 137.773 89.4508 137.394 90.4052 137.394H175.171C176.125 137.394 177.041 137.773 177.715 138.448C178.39 139.123 178.769 140.039 178.769 140.994C178.769 141.948 178.39 142.864 177.715 143.539C177.041 144.214 176.125 144.594 175.171 144.594Z" fill="#CCCCCC"/>
<path d="M175.171 190.193H90.4052C89.4508 190.193 88.5355 189.813 87.8606 189.138C87.1858 188.463 86.8066 187.547 86.8066 186.593C86.8066 185.638 87.1858 184.722 87.8606 184.047C88.5355 183.372 89.4508 182.993 90.4052 182.993H175.171C176.125 182.993 177.041 183.372 177.715 184.047C178.39 184.722 178.769 185.638 178.769 186.593C178.769 187.547 178.39 188.463 177.715 189.138C177.041 189.813 176.125 190.193 175.171 190.193Z" fill="#CCCCCC"/>
<path d="M175.171 235.791H90.4052C89.4508 235.791 88.5355 235.412 87.8606 234.737C87.1858 234.062 86.8066 233.146 86.8066 232.191C86.8066 231.237 87.1858 230.321 87.8606 229.646C88.5355 228.971 89.4508 228.592 90.4052 228.592H175.171C176.125 228.592 177.041 228.971 177.715 229.646C178.39 230.321 178.769 231.237 178.769 232.191C178.769 233.146 178.39 234.062 177.715 234.737C177.041 235.412 176.125 235.791 175.171 235.791Z" fill="#CCCCCC"/>
<path d="M466.068 137.45C466.461 137.629 466.838 137.84 467.197 138.079L503.064 122.765L504.344 113.313L518.676 113.226L517.829 134.904L470.488 147.428C470.389 147.757 470.269 148.08 470.13 148.395C469.446 149.856 468.345 151.082 466.967 151.919C465.588 152.756 463.992 153.167 462.381 153.101C460.769 153.034 459.214 152.492 457.909 151.544C456.604 150.595 455.608 149.282 455.047 147.77C454.486 146.257 454.383 144.612 454.753 143.042C455.123 141.471 455.949 140.045 457.127 138.943C458.304 137.84 459.781 137.11 461.372 136.844C462.963 136.579 464.597 136.789 466.068 137.45Z" fill="#FFB8B8"/>
<path d="M523.889 333.893L514.085 333.892L509.421 296.063L523.89 296.063L523.889 333.893Z" fill="#FFB8B8"/>
<path d="M507.081 331.09H525.989V342.999H495.177C495.177 341.435 495.485 339.887 496.083 338.442C496.681 336.997 497.558 335.684 498.664 334.578C499.769 333.472 501.081 332.595 502.526 331.997C503.97 331.398 505.518 331.09 507.081 331.09Z" fill="#2F2E41"/>
<path d="M562.016 331.121L552.26 332.083L543.91 294.893L558.31 293.474L562.016 331.121Z" fill="#FFB8B8"/>
<path d="M545.016 329.981L563.833 328.127L565 339.978L534.336 343C534.183 341.444 534.337 339.872 534.791 338.376C535.245 336.879 535.989 335.486 536.981 334.277C537.973 333.069 539.193 332.067 540.571 331.33C541.95 330.592 543.461 330.134 545.016 329.981Z" fill="#2F2E41"/>
<path d="M526.617 73.1897C537.465 73.1897 546.258 64.3928 546.258 53.5413C546.258 42.6898 537.465 33.8929 526.617 33.8929C515.77 33.8929 506.977 42.6898 506.977 53.5413C506.977 64.3928 515.77 73.1897 526.617 73.1897Z" fill="#FFB8B8"/>
<path d="M511.893 326.242C511.051 326.244 510.235 325.949 509.589 325.408C508.943 324.867 508.509 324.115 508.363 323.285C503.288 295.105 486.701 202.963 486.305 200.411C486.296 200.352 486.292 200.293 486.292 200.234V193.363C486.291 193.113 486.37 192.869 486.515 192.666L488.707 189.596C488.811 189.448 488.947 189.326 489.106 189.239C489.264 189.153 489.441 189.103 489.621 189.096C502.114 188.51 543.027 186.792 545.003 189.263C546.989 191.745 546.287 199.268 546.126 200.751L546.134 200.905L564.515 318.499C564.659 319.437 564.428 320.393 563.872 321.162C563.316 321.931 562.48 322.45 561.544 322.606L550.064 324.499C549.209 324.636 548.333 324.462 547.595 324.008C546.858 323.554 546.308 322.85 546.045 322.024C542.494 310.674 530.588 272.491 526.462 257.717C526.436 257.623 526.377 257.542 526.296 257.489C526.215 257.435 526.117 257.414 526.021 257.427C525.925 257.441 525.837 257.489 525.774 257.563C525.711 257.636 525.676 257.73 525.678 257.827C525.884 271.912 526.382 307.845 526.554 320.256L526.573 321.592C526.58 322.497 526.248 323.372 525.642 324.044C525.036 324.716 524.2 325.136 523.3 325.221L512.229 326.227C512.117 326.238 512.004 326.242 511.893 326.242Z" fill="#2F2E41"/>
<path d="M514.152 80.9155C510.725 82.9539 508.674 86.6997 507.497 90.5114C505.318 97.5682 504.006 104.864 503.591 112.238L502.347 134.318L486.949 192.853C500.295 204.149 507.993 201.582 525.958 192.342C543.923 183.102 545.976 195.422 545.976 195.422L549.568 145.617L554.701 91.1923C553.549 89.8045 552.245 88.5502 550.813 87.4531C546.069 83.7626 540.549 81.1975 534.67 79.951C528.791 78.7045 522.706 78.8091 516.873 80.257L514.152 80.9155Z" fill="#B3B3B3"/>
<path d="M509.15 149.271C509.564 149.427 509.966 149.615 510.35 149.834L545.815 132.077L546.403 122.457L561.032 121.448L561.816 143.377L514.423 159.057C514.036 160.717 513.153 162.22 511.891 163.366C510.629 164.513 509.048 165.247 507.359 165.473C505.67 165.698 503.952 165.404 502.433 164.629C500.915 163.854 499.669 162.635 498.86 161.134C498.052 159.633 497.719 157.922 497.906 156.227C498.094 154.532 498.792 152.935 499.909 151.647C501.026 150.359 502.509 149.442 504.16 149.018C505.81 148.594 507.551 148.682 509.15 149.271Z" fill="#FFB8B8"/>
<path d="M554.443 91.4415C563.169 94.5223 564.706 127.9 564.706 127.9C554.441 122.251 542.122 131.494 542.122 131.494C542.122 131.494 539.556 122.765 536.476 111.469C535.546 108.291 535.435 104.93 536.153 101.698C536.87 98.4663 538.394 95.4685 540.582 92.9841C540.582 92.9841 545.717 88.3587 554.443 91.4415Z" fill="#B3B3B3"/>
<path d="M544.228 58.7374C541.781 56.7788 538.442 60.3388 538.442 60.3388L536.484 42.7124C536.484 42.7124 524.248 44.1787 516.417 42.2231C508.587 40.2676 507.363 49.3231 507.363 49.3231C506.959 45.6652 506.877 41.9788 507.118 38.3066C507.607 33.9 513.97 29.4934 525.227 26.5554C536.484 23.6174 542.357 36.348 542.357 36.348C550.189 40.2645 546.675 60.6961 544.228 58.7374Z" fill="#2F2E41"/>
<path d="M470.053 188.193C470.18 186.075 470.252 183.942 470.252 181.793C470.252 153.786 459.13 126.927 439.335 107.124C419.539 87.3206 392.69 76.1952 364.694 76.1951V188.193H470.053Z" fill="#98FB98"/>
<path d="M356.697 197.792V85.7949C336.092 85.7941 315.938 91.8261 298.719 103.147C281.5 114.468 267.969 130.583 259.796 149.505C251.622 168.426 249.163 189.327 252.722 209.63C256.281 229.934 265.702 248.751 279.823 263.762C293.944 278.772 312.148 289.321 332.19 294.106C352.232 298.89 373.236 297.703 392.611 290.689C411.987 283.675 428.886 271.141 441.227 254.634C453.567 238.127 460.808 218.367 462.056 197.792H356.697Z" fill="#3F563D"/>
</g>
<defs>
<clipPath id="clip0_224_99">
<rect width="565" height="343" fill="white"/>
</clipPath>
</defs>
</svg>
