<svg width="106" height="40" viewBox="0 0 106 40" fill="none" xmlns="http://www.w3.org/2000/svg">
<rect width="40" height="40" rx="5" fill="#0A0A0A"/>
<path d="M10 11C10 10.4477 10.4477 10 11 10H14C14.5523 10 15 10.4477 15 11V30H10V11Z" fill="#98FB98"/>
<path d="M17 16C17 15.4477 17.4477 15 18 15H21C21.5523 15 22 15.4477 22 16V30H17V16Z" fill="#98FB98"/>
<path d="M24 13.5C24 12.9477 24.4477 12.5 25 12.5H28C28.5523 12.5 29 12.9477 29 13.5V30H24V13.5Z" fill="#98FB98"/>
<path d="M50.0227 32V8.72727H59.2045C60.9697 8.72727 62.4735 9.06439 63.7159 9.73864C64.9583 10.4053 65.9053 11.3333 66.5568 12.5227C67.2159 13.7045 67.5455 15.0682 67.5455 16.6136C67.5455 18.1591 67.2121 19.5227 66.5455 20.7045C65.8788 21.8864 64.9129 22.8068 63.6477 23.4659C62.3902 24.125 60.8674 24.4545 59.0795 24.4545H53.2273V20.5114H58.2841C59.2311 20.5114 60.0114 20.3485 60.625 20.0227C61.2462 19.6894 61.7083 19.2311 62.0114 18.6477C62.322 18.0568 62.4773 17.3788 62.4773 16.6136C62.4773 15.8409 62.322 15.1667 62.0114 14.5909C61.7083 14.0076 61.2462 13.5568 60.625 13.2386C60.0038 12.9129 59.2159 12.75 58.2614 12.75H54.9432V32H50.0227ZM78.2557 32.3409C76.4905 32.3409 74.964 31.9659 73.6761 31.2159C72.3958 30.4583 71.4072 29.4053 70.7102 28.0568C70.0133 26.7008 69.6648 25.1288 69.6648 23.3409C69.6648 21.5379 70.0133 19.9621 70.7102 18.6136C71.4072 17.2576 72.3958 16.2045 73.6761 15.4545C74.964 14.697 76.4905 14.3182 78.2557 14.3182C80.0208 14.3182 81.5436 14.697 82.8239 15.4545C84.1117 16.2045 85.1042 17.2576 85.8011 18.6136C86.4981 19.9621 86.8466 21.5379 86.8466 23.3409C86.8466 25.1288 86.4981 26.7008 85.8011 28.0568C85.1042 29.4053 84.1117 30.4583 82.8239 31.2159C81.5436 31.9659 80.0208 32.3409 78.2557 32.3409ZM78.2784 28.5909C79.0814 28.5909 79.7519 28.3636 80.2898 27.9091C80.8277 27.447 81.233 26.8182 81.5057 26.0227C81.786 25.2273 81.9261 24.322 81.9261 23.3068C81.9261 22.2917 81.786 21.3864 81.5057 20.5909C81.233 19.7955 80.8277 19.1667 80.2898 18.7045C79.7519 18.2424 79.0814 18.0114 78.2784 18.0114C77.4678 18.0114 76.786 18.2424 76.233 18.7045C75.6875 19.1667 75.2746 19.7955 74.9943 20.5909C74.7216 21.3864 74.5852 22.2917 74.5852 23.3068C74.5852 24.322 74.7216 25.2273 74.9943 26.0227C75.2746 26.8182 75.6875 27.447 76.233 27.9091C76.786 28.3636 77.4678 28.5909 78.2784 28.5909ZM94.8352 8.72727V32H89.9943V8.72727H94.8352ZM103.554 8.72727V32H98.7131V8.72727H103.554Z" fill="white"/>
</svg>
