<svg width="124" height="36" viewBox="0 0 124 36" fill="none"
    xmlns="http://www.w3.org/2000/svg">
    <rect y="2" width="32" height="32" rx="5" fill="#0A0A0A"/>
    <path d="M8 11C8 10.4477 8.44772 10 9 10H11C11.5523 10 12 10.4477 12 11V26H8V11Z" fill="#22c55e"/>
    <path d="M14 15C14 14.4477 14.4477 14 15 14H17C17.5523 14 18 14.4477 18 15V26H14V15Z" fill="#22c55e"/>
    <path d="M20 13C20 12.4477 20.4477 12 21 12H23C23.5523 12 24 12.4477 24 13V26H20V13Z" fill="#22c55e"/>
    <path d="M45.9957 20.2955H48.5526L49.6392 21.6825L51.0646 23.3189L53.2571 26.0227H50.3935L48.8594 24.1882L47.9517 22.8842L45.9957 20.2955ZM53.3466 18.4545C53.3466 19.8949 53.0696 21.1158 52.5156 22.1172C51.9616 23.1186 51.2116 23.8793 50.2656 24.3991C49.3239 24.919 48.267 25.179 47.0952 25.179C45.919 25.179 44.8601 24.9169 43.9183 24.3928C42.9766 23.8686 42.2287 23.108 41.6747 22.1108C41.125 21.1094 40.8501 19.8906 40.8501 18.4545C40.8501 17.0142 41.125 15.7933 41.6747 14.7919C42.2287 13.7905 42.9766 13.0298 43.9183 12.5099C44.8601 11.9901 45.919 11.7301 47.0952 11.7301C48.267 11.7301 49.3239 11.9901 50.2656 12.5099C51.2116 13.0298 51.9616 13.7905 52.5156 14.7919C53.0696 15.7933 53.3466 17.0142 53.3466 18.4545ZM50.1122 18.4545C50.1122 17.6023 49.9908 16.8821 49.7479 16.294C49.5092 15.706 49.1641 15.2607 48.7124 14.9581C48.2649 14.6555 47.7259 14.5043 47.0952 14.5043C46.4688 14.5043 45.9297 14.6555 45.478 14.9581C45.0263 15.2607 44.679 15.706 44.4361 16.294C44.1974 16.8821 44.0781 17.6023 44.0781 18.4545C44.0781 19.3068 44.1974 20.027 44.4361 20.6151C44.679 21.2031 45.0263 21.6484 45.478 21.951C45.9297 22.2536 46.4688 22.4048 47.0952 22.4048C47.7259 22.4048 48.2649 22.2536 48.7124 21.951C49.1641 21.6484 49.5092 21.2031 49.7479 20.6151C49.9908 20.027 50.1122 19.3068 50.1122 18.4545ZM60.646 20.7621V15.1818H63.7653V25H60.7866V23.1719H60.6843C60.467 23.7727 60.0963 24.25 59.5721 24.6037C59.0522 24.9531 58.4237 25.1278 57.6865 25.1278C57.0174 25.1278 56.4294 24.9744 55.9223 24.6676C55.4152 24.3608 55.021 23.9325 54.7397 23.3828C54.4585 22.8288 54.3157 22.1811 54.3115 21.4396V15.1818H57.4372V20.826C57.4414 21.3587 57.5821 21.7784 57.8591 22.0852C58.136 22.392 58.5132 22.5455 58.9904 22.5455C59.3015 22.5455 59.5806 22.4773 59.8278 22.3409C60.0792 22.2003 60.2774 21.9979 60.4223 21.7337C60.5714 21.4652 60.646 21.1413 60.646 20.7621ZM64.8548 25V15.1818H67.9805V25H64.8548ZM66.4209 14.0376C65.982 14.0376 65.6048 13.8928 65.2895 13.603C64.9741 13.3089 64.8165 12.9553 64.8165 12.5419C64.8165 12.1328 64.9741 11.7834 65.2895 11.4936C65.6048 11.1996 65.982 11.0526 66.4209 11.0526C66.8641 11.0526 67.2412 11.1996 67.5523 11.4936C67.8676 11.7834 68.0253 12.1328 68.0253 12.5419C68.0253 12.9553 67.8676 13.3089 67.5523 13.603C67.2412 13.8928 66.8641 14.0376 66.4209 14.0376ZM73.6532 25.1854C72.6176 25.1854 71.7292 24.9723 70.9877 24.5462C70.2505 24.12 69.6837 23.5277 69.2874 22.7692C68.8911 22.0064 68.6929 21.1243 68.6929 20.1229C68.6929 19.1172 68.8911 18.2351 69.2874 17.4766C69.688 16.7138 70.2569 16.1193 70.9941 15.6932C71.7355 15.267 72.6198 15.054 73.6468 15.054C74.5544 15.054 75.3449 15.218 76.0182 15.5462C76.6958 15.8743 77.2242 16.3388 77.6034 16.9396C77.987 17.5362 78.1894 18.2372 78.2107 19.0426H75.2895C75.2299 18.5398 75.0594 18.1456 74.7782 17.8601C74.5012 17.5746 74.139 17.4318 73.6915 17.4318C73.3293 17.4318 73.0118 17.5341 72.7391 17.7386C72.4664 17.9389 72.2533 18.2372 72.0999 18.6335C71.9507 19.0256 71.8762 19.5114 71.8762 20.0909C71.8762 20.6705 71.9507 21.1605 72.0999 21.5611C72.2533 21.9574 72.4664 22.2578 72.7391 22.4624C73.0118 22.6626 73.3293 22.7628 73.6915 22.7628C73.9813 22.7628 74.237 22.701 74.4586 22.5774C74.6844 22.4538 74.8698 22.2727 75.0147 22.0341C75.1596 21.7912 75.2512 21.4972 75.2895 21.152H78.2107C78.1809 21.9616 77.9784 22.669 77.6034 23.2741C77.2327 23.8793 76.7107 24.3501 76.0374 24.6868C75.3684 25.0192 74.5736 25.1854 73.6532 25.1854ZM81.7292 22.424L81.742 18.6974H82.1766L84.938 15.1818H88.4792L84.3755 20.2188H83.5509L81.7292 22.424ZM78.9103 25V11.9091H82.036V25H78.9103ZM85.0083 25L82.4387 20.9219L84.4969 18.7038L88.6198 25H85.0083ZM94.6322 25V11.9091H100.04C101.02 11.9091 101.866 12.1009 102.577 12.4844C103.293 12.8636 103.845 13.3942 104.233 14.076C104.621 14.7536 104.815 15.5419 104.815 16.4411C104.815 17.3445 104.617 18.1349 104.22 18.8125C103.828 19.4858 103.268 20.0078 102.539 20.3786C101.81 20.7493 100.945 20.9347 99.944 20.9347H96.6073V18.4418H99.3559C99.8332 18.4418 100.232 18.3587 100.551 18.1925C100.875 18.0263 101.12 17.794 101.286 17.4957C101.452 17.1932 101.536 16.8416 101.536 16.4411C101.536 16.0362 101.452 15.6868 101.286 15.3928C101.12 15.0945 100.875 14.8643 100.551 14.7024C100.227 14.5405 99.8289 14.4595 99.3559 14.4595H97.7962V25H94.6322ZM109.864 25.1854C108.833 25.1854 107.946 24.9744 107.205 24.5526C106.468 24.1264 105.899 23.5341 105.498 22.7756C105.102 22.0128 104.904 21.1286 104.904 20.1229C104.904 19.1129 105.102 18.2287 105.498 17.4702C105.899 16.7074 106.468 16.1151 107.205 15.6932C107.946 15.267 108.833 15.054 109.864 15.054C110.895 15.054 111.78 15.267 112.517 15.6932C113.258 16.1151 113.827 16.7074 114.223 17.4702C114.624 18.2287 114.824 19.1129 114.824 20.1229C114.824 21.1286 114.624 22.0128 114.223 22.7756C113.827 23.5341 113.258 24.1264 112.517 24.5526C111.78 24.9744 110.895 25.1854 109.864 25.1854ZM109.883 22.8267C110.258 22.8267 110.576 22.7116 110.836 22.4815C111.096 22.2514 111.294 21.9318 111.43 21.5227C111.571 21.1136 111.641 20.6406 111.641 20.1037C111.641 19.5582 111.571 19.081 111.43 18.6719C111.294 18.2628 111.096 17.9432 110.836 17.7131C110.576 17.483 110.258 17.3679 109.883 17.3679C109.495 17.3679 109.167 17.483 108.899 17.7131C108.635 17.9432 108.432 18.2628 108.292 18.6719C108.155 19.081 108.087 19.5582 108.087 20.1037C108.087 20.6406 108.155 21.1136 108.292 21.5227C108.432 21.9318 108.635 22.2514 108.899 22.4815C109.167 22.7116 109.495 22.8267 109.883 22.8267ZM118.651 11.9091V25H115.526V11.9091H118.651ZM122.866 11.9091V25H119.741V11.9091H122.866Z" fill="#171717"/>
</svg>
